<?xml version="1.0" encoding="UTF-8"?>
<svg width="100px" height="20px" viewBox="0 0 100 20" version="1.1" xmlns="http://www.w3.org/2000/svg" xmlns:xlink="http://www.w3.org/1999/xlink">
    <!-- Generator: Sketch 51.3 (57544) - http://www.bohemiancoding.com/sketch -->
    <title>logo</title>
    <desc>Created with Sketch.</desc>
    <defs></defs>
    <g id="Symbols" stroke="none" stroke-width="1" fill="none" fill-rule="evenodd">
        <g id="Design/Main-nav" transform="translate(-20.000000, -25.000000)" fill="#D8A348" fill-rule="nonzero">
            <g id="Main-nav">
                <g id="logo" transform="translate(20.000000, 25.000000)">
                    <path d="M97.631935,8.91156463 L100,6.53061224 C98.5926928,5.11564626 96.6441137,4.23129252 94.5060893,4.23129252 C90.2165088,4.23129252 86.7388363,7.72789116 86.7388363,12.0408163 L86.7388363,19.877551 L90.0811908,19.877551 L90.0811908,12.0408163 C90.0811908,9.57823129 92.0568336,7.59183673 94.5060893,7.59183673 C95.7239513,7.60544218 96.8335589,8.0952381 97.631935,8.91156463 Z" id="Shape"></path>
                    <path d="M84.6414073,16.4761905 L84.6414073,12.0272109 C84.6414073,7.71428571 81.1637348,4.21768707 76.8741543,4.21768707 C72.5845737,4.21768707 69.1069012,7.71428571 69.1069012,12.0272109 C69.1069012,16.3401361 72.5845737,19.8367347 76.8741543,19.8367347 C76.8876861,19.8367347 76.9147497,19.8367347 76.9282815,19.8367347 L81.285521,19.8367347 L84.6278755,19.8367347 L84.6278755,16.4761905 L84.6414073,16.4761905 Z M76.9418133,16.4761905 C76.9147497,16.4761905 76.9012179,16.4761905 76.8876861,16.4761905 C74.4384303,16.4761905 72.4627876,14.4897959 72.4627876,12.0272109 C72.4627876,9.56462585 74.4384303,7.57823129 76.8876861,7.57823129 C79.3369418,7.57823129 81.3125846,9.56462585 81.3125846,12.0272109 L81.3125846,16.4761905 L76.9418133,16.4761905 Z" id="Shape"></path>
                    <path d="M46.0351827,14.8843537 C45.2232747,15.8639456 44.0054127,16.4897959 42.6387009,16.4897959 C40.1894452,16.4897959 38.2138024,14.5034014 38.2138024,12.0408163 C38.2138024,9.57823129 40.1894452,7.59183673 42.6387009,7.59183673 C44.0054127,7.59183673 45.2232747,8.21768707 46.0351827,9.19727891 L49.864682,9.19727891 C48.7280108,6.28571429 45.9269283,4.23129252 42.6251691,4.23129252 C38.3355886,4.23129252 34.8579161,7.72789116 34.8579161,12.0408163 C34.8579161,16.3537415 38.3355886,19.8503401 42.6251691,19.8503401 C45.9133965,19.8503401 48.7280108,17.7959184 49.864682,14.8843537 L46.0351827,14.8843537 Z" id="Shape"></path>
                    <path d="M29.0257104,14.5170068 C28.2273342,15.7142857 26.8741543,16.5170068 25.3315291,16.5170068 C23.1799729,16.5170068 21.3802436,14.9659864 20.9878214,12.9251701 L26.5223275,12.9251701 L26.5223275,12.8979592 L33.0446549,12.8979592 C33.0717185,12.6258503 33.0852503,12.3537415 33.0852503,12.0680272 C33.0852503,7.75510204 29.6075778,4.2585034 25.3179973,4.2585034 C21.0284168,4.2585034 17.5507442,7.75510204 17.5507442,12.0680272 C17.5507442,16.3809524 21.0284168,19.877551 25.3179973,19.877551 C28.7550744,19.877551 31.6644114,17.6326531 32.6928281,14.5170068 L29.0257104,14.5170068 Z M25.3315291,7.60544218 C27.2801083,7.60544218 28.9309878,8.8707483 29.526387,10.6258503 L21.150203,10.6258503 C21.7320704,8.8707483 23.3829499,7.60544218 25.3315291,7.60544218 Z" id="Shape"></path>
                    <path d="M63.9512855,10.8571429 L63.9512855,12.0408163 C63.9512855,14.5034014 61.9756428,16.4897959 59.526387,16.4897959 C57.0771313,16.4897959 55.1014885,14.5034014 55.1014885,12.0408163 L55.1014885,7.55102041 L63.9512855,7.55102041 L63.9512855,4.21768707 L55.1014885,4.21768707 L55.1014885,0 L51.759134,0 L51.759134,4.21768707 L51.759134,7.53741497 L51.759134,12.0272109 C51.759134,16.3401361 55.2368065,19.8367347 59.526387,19.8367347 C63.8159675,19.8367347 67.2936401,16.3401361 67.2936401,12.0272109 L67.2936401,10.8435374 L63.9512855,10.8435374 L63.9512855,10.8571429 Z" id="Shape"></path>
                    <path d="M7.82138024,4.24489796 C3.53179973,4.24489796 0.0541271989,7.7414966 0.0541271989,12.0544218 L0.0541271989,19.8911565 L3.39648173,19.8911565 L3.39648173,12.0544218 C3.39648173,9.59183673 5.37212449,7.60544218 7.82138024,7.60544218 C10.270636,7.60544218 12.2462788,9.59183673 12.2462788,12.0544218 L12.2462788,19.8911565 L15.5886333,19.8911565 L15.5886333,12.0544218 C15.5751015,7.7414966 12.097429,4.24489796 7.82138024,4.24489796 Z" id="Shape"></path>
                </g>
            </g>
        </g>
    </g>
</svg>